<svg width="16" height="14" viewBox="0 0 16 14" fill="none" xmlns="http://www.w3.org/2000/svg">
<path d="M6 4.12473e-07C5.37935 -0.00032496 4.77387 0.191856 4.26702 0.550057C3.76016 0.908257 3.37688 1.41484 3.17 2H0V4H3.17C3.3766 4.58553 3.75974 5.09257 4.2666 5.45121C4.77346 5.80985 5.37909 6.00245 6 6.00245C6.62091 6.00245 7.22654 5.80985 7.7334 5.45121C8.24026 5.09257 8.6234 4.58553 8.83 4H16V2H8.83C8.62312 1.41484 8.23984 0.908257 7.73298 0.550057C7.22613 0.191856 6.62065 -0.00032496 6 4.12473e-07ZM10 8C9.37935 7.99967 8.77387 8.19186 8.26702 8.55006C7.76016 8.90826 7.37688 9.41484 7.17 10H0V12H7.17C7.3766 12.5855 7.75974 13.0926 8.2666 13.4512C8.77346 13.8099 9.37909 14.0025 10 14.0025C10.6209 14.0025 11.2265 13.8099 11.7334 13.4512C12.2403 13.0926 12.6234 12.5855 12.83 12H16V10H12.83C12.6231 9.41484 12.2398 8.90826 11.733 8.55006C11.2261 8.19186 10.6207 7.99967 10 8Z" fill="#2B2B2B"/>
</svg>
