<svg width="21" height="20" viewBox="0 0 21 20" fill="none" xmlns="http://www.w3.org/2000/svg">
<path d="M17.9158 2.74594C16.9448 2.15127 15.7944 1.90056 14.6569 2.03575C13.5195 2.17093 12.4641 2.6838 11.6669 3.48862L10.5027 4.60934H10.4754L9.32473 3.48862C8.52761 2.6838 7.47213 2.17093 6.33472 2.03575C5.19731 1.90056 4.04692 2.15127 3.07584 2.74594C2.50834 3.10531 2.02993 3.58389 1.6754 4.14685C1.32087 4.7098 1.09916 5.34298 1.02641 6.00028C0.953655 6.65758 1.03169 7.32247 1.25483 7.94657C1.47797 8.57066 1.84061 9.13826 2.31634 9.60804L10.4435 18L10.6073 17.8399L10.6573 17.8888L18.689 9.60804C19.1641 9.13735 19.5258 8.56897 19.7479 7.9443C19.9699 7.31963 20.0467 6.6544 19.9726 5.99704C19.8986 5.33968 19.6755 4.70676 19.3197 4.14435C18.9639 3.58194 18.4843 3.1042 17.9158 2.74594V2.74594Z" stroke="#808080" stroke-width="1.5" stroke-linecap="round" stroke-linejoin="round"/>
</svg>
