<svg width="427" height="336" viewBox="0 0 427 336" fill="none" xmlns="http://www.w3.org/2000/svg">
<g clip-path="url(#clip0_212_11745)">
<path d="M401.851 184.623C402.624 182.658 405.389 182.658 406.162 184.623L408.55 190.705C408.782 191.308 409.254 191.782 409.855 192.015L415.918 194.41C417.876 195.185 417.876 197.959 415.918 198.735L409.855 201.13C409.254 201.362 408.782 201.836 408.55 202.439L406.162 208.522C405.389 210.486 402.624 210.486 401.851 208.522L399.464 202.439C399.232 201.836 398.76 201.362 398.158 201.13L392.095 198.735C390.137 197.959 390.137 195.185 392.095 194.41L398.158 192.015C398.76 191.782 399.232 191.308 399.464 190.705L401.851 184.623Z" fill="#C8C7FF"/>
<path d="M0.218397 207.514C-0.700496 205.394 1.44645 203.24 3.55905 204.162L10.1115 207.014C10.7556 207.298 11.4942 207.298 12.1382 207.014L18.6907 204.162C20.8033 203.24 22.9503 205.394 22.0314 207.514L19.1888 214.087C18.9054 214.733 18.9054 215.474 19.1888 216.12L22.0314 222.694C22.9503 224.813 20.8033 226.967 18.6907 226.045L12.1382 223.194C11.4942 222.909 10.7556 222.909 10.1115 223.194L3.55905 226.045C1.44645 226.967 -0.700496 224.813 0.218397 222.694L3.06095 216.12C3.34435 215.474 3.34435 214.733 3.06095 214.087L0.218397 207.514Z" fill="#9283FF"/>
<path d="M346.882 89.7154C346.118 87.9492 347.904 86.1487 349.664 86.924L355.126 89.3019C355.667 89.5345 356.277 89.5345 356.809 89.3019L362.271 86.924C364.032 86.1572 365.826 87.9492 365.054 89.7154L362.683 95.1948C362.451 95.7376 362.451 96.3492 362.683 96.8834L365.054 102.363C365.818 104.129 364.032 105.93 362.271 105.154L356.809 102.776C356.268 102.544 355.659 102.544 355.126 102.776L349.664 105.154C347.904 105.921 346.109 104.129 346.882 102.363L349.252 96.8834C349.484 96.3406 349.484 95.7289 349.252 95.1948L346.882 89.7154Z" fill="#C8C7FF"/>
<path d="M71.042 261.678C70.2777 259.912 72.0639 258.112 73.8244 258.887L79.2863 261.265C79.8273 261.498 80.437 261.498 80.9695 261.265L86.4311 258.887C88.1916 258.12 89.9865 259.912 89.2136 261.678L86.8433 267.158C86.6115 267.701 86.6115 268.312 86.8433 268.846L89.2136 274.326C89.9779 276.092 88.1916 277.893 86.4311 277.117L80.9695 274.739C80.4284 274.507 79.8187 274.507 79.2863 274.739L73.8244 277.117C72.0639 277.884 70.2691 276.092 71.042 274.326L73.4122 268.846C73.6441 268.304 73.6441 267.692 73.4122 267.158L71.042 261.678Z" fill="#9283FF"/>
<path d="M114.667 4.98332C113.388 2.02824 116.376 -0.969912 119.322 0.313778L128.451 4.28547C129.353 4.67316 130.375 4.67316 131.268 4.28547L140.396 0.305163C143.342 -0.978527 146.331 2.01963 145.051 4.9747L141.083 14.1328C140.697 15.0375 140.697 16.0627 141.083 16.9587L145.051 26.1168C146.331 29.0719 143.342 32.0701 140.396 30.7864L131.268 26.8061C130.366 26.4184 129.344 26.4184 128.451 26.8061L119.322 30.7864C116.376 32.0701 113.388 29.0719 114.667 26.1168L118.635 16.9587C119.021 16.0541 119.021 15.0288 118.635 14.1328L114.667 4.98332Z" fill="#C8C7FF"/>
<path d="M212.5 337C325.995 337 418 325.808 418 312C418 298.193 325.995 287 212.5 287C99.0052 287 7 298.193 7 312C7 325.808 99.0052 337 212.5 337Z" fill="#F1F1F5"/>
<path d="M357.801 321.245C357.801 321.245 329.814 264.254 415.185 239.408C415.185 239.416 421.128 325.777 357.801 321.245Z" fill="#FE7411"/>
<mask id="mask0_212_11745" style="mask-type:luminance" maskUnits="userSpaceOnUse" x="353" y="239" width="63" height="83">
<path d="M357.801 321.245C357.801 321.245 329.814 264.254 415.185 239.408C415.185 239.416 421.128 325.777 357.801 321.245Z" fill="white"/>
</mask>
<g mask="url(#mask0_212_11745)">
<path d="M426.633 252.675L426.143 251.857C409.268 261.937 393.905 265.469 389.37 266.357C393.595 261.351 397.769 256.759 401.539 252.779C403.239 252.46 414.867 250.039 426.676 241.208L426.109 240.442C416.173 247.868 406.391 250.685 402.716 251.547C410.917 243 416.971 237.581 417.152 237.418L416.516 236.702C416.336 236.866 410.144 242.397 401.797 251.125C402.604 240.269 407.911 229.638 407.971 229.526L407.121 229.095C407.061 229.207 401.29 240.76 400.783 252.193C396.996 256.182 392.822 260.791 388.589 265.814C388.889 251.607 394.952 234.962 395.021 234.79L394.128 234.462C394.059 234.643 387.601 252.357 387.627 266.977C383.548 271.87 379.434 277.152 375.595 282.631C374.848 262.17 380.877 241.062 380.937 240.846L380.018 240.579C379.958 240.803 373.629 262.919 374.685 283.932C371.842 288.059 369.163 292.298 366.784 296.562C362.559 274.567 368.004 254.597 368.064 254.39L367.145 254.131C367.085 254.338 361.391 275.196 366.071 297.872C363.736 302.179 361.709 306.513 360.12 310.803C354.718 295.416 353.671 273.378 353.903 272.112L352.967 271.939C352.717 273.318 353.688 296.304 359.613 312.216C358.162 316.378 357.132 320.487 356.659 324.493L357.604 324.605C358.068 320.746 359.047 316.774 360.429 312.75C361.546 312.983 364.758 313.534 370.288 313.534C370.726 313.534 371.181 313.534 371.645 313.526C378.79 313.414 390.839 312.32 407.679 307.754L407.43 306.832C378.704 314.62 363.624 312.397 360.747 311.837C362.344 307.383 364.431 302.877 366.862 298.397C367.634 298.475 369.635 298.638 372.547 298.638C381.727 298.638 399.779 297.002 415.477 285.802L414.919 285.026C395.227 299.086 371.782 297.872 367.36 297.493C369.799 293.082 372.555 288.696 375.492 284.432C378.438 284.13 404.665 281.115 422.133 267.451L421.549 266.701C405.369 279.349 381.538 282.769 376.214 283.389C380.104 277.824 384.269 272.474 388.417 267.511C390.65 267.123 407.705 263.979 426.633 252.675Z" fill="#8C4817"/>
</g>
<path opacity="0.1" d="M415.186 239.417C410.136 240.89 405.499 242.475 401.213 244.146C403.06 249.695 404.073 255.691 404.073 261.946C404.073 290.376 383.238 313.431 357.544 313.431C356.728 313.431 355.913 313.405 355.105 313.362C356.342 318.264 357.81 321.254 357.81 321.254C421.128 325.777 415.186 239.417 415.186 239.417Z" fill="#0046A0"/>
<path d="M115.467 290.876C115.467 290.876 54.365 305.496 49.0234 217.395C49.0234 217.395 133.656 230.551 115.467 290.876Z" fill="#FE7411"/>
<mask id="mask1_212_11745" style="mask-type:luminance" maskUnits="userSpaceOnUse" x="49" y="217" width="70" height="75">
<path d="M115.467 290.876C115.467 290.876 54.365 305.496 49.0234 217.395C49.0234 217.395 133.656 230.551 115.467 290.876Z" fill="white"/>
</mask>
<g mask="url(#mask1_212_11745)">
<path d="M64.3258 209.219L63.4241 209.512C69.4613 228.061 69.5214 243.707 69.384 248.299C65.4765 243.112 61.9555 238.064 58.9412 233.541C59.0099 231.826 59.2074 220.04 53.2647 206.669L52.4059 207.057C57.404 218.309 57.988 228.397 58.0137 232.136C51.5557 222.323 47.6483 215.276 47.5281 215.061L46.7036 215.517C46.8239 215.733 50.8086 222.935 57.404 232.92C47.1073 229.767 38.0042 222.289 37.9097 222.211L37.3086 222.944C37.4031 223.03 47.2876 231.145 58.2198 234.144C61.2427 238.684 64.7723 243.733 68.697 248.936C55.051 245.533 40.3143 236.013 40.1683 235.918L39.6531 236.711C39.8076 236.814 55.4975 246.946 69.6073 250.125C73.446 255.148 77.6368 260.283 82.0853 265.202C62.1788 261.446 43.1225 250.987 42.9336 250.875L42.4784 251.702C42.676 251.814 62.6426 262.781 83.1416 266.357C86.5078 270.009 90.003 273.533 93.6099 276.773C71.4622 276.049 53.3763 266.4 53.196 266.305L52.7494 267.141C52.9384 267.244 71.8229 277.324 94.7177 277.755C98.3589 280.96 102.103 283.872 105.899 286.344C89.8742 288.205 68.3792 284.397 67.2027 283.897L66.8334 284.768C68.1044 285.31 90.5011 289.403 107.153 287.146C110.854 289.463 114.598 291.358 118.351 292.694L118.669 291.798C115.045 290.505 111.43 288.688 107.848 286.465C108.312 285.44 109.549 282.441 110.76 277.091C110.854 276.669 110.949 276.23 111.043 275.773C112.494 268.838 114.066 256.931 113.345 239.614L112.4 239.658C113.645 269.182 108.209 283.294 107.041 285.957C103.091 283.432 99.2005 280.425 95.4047 277.091C95.6452 276.368 96.2377 274.464 96.8732 271.638C98.8742 262.747 101.244 244.913 93.8503 227.26L92.9744 227.63C102.241 249.772 95.9543 272.206 94.6232 276.411C90.8961 273.085 87.2721 269.458 83.7943 265.676C84.1464 262.755 86.9629 236.702 77.5939 216.792L76.7437 217.197C85.4174 235.634 83.5109 259.456 82.9527 264.746C78.4355 259.766 74.176 254.554 70.2943 249.453C70.4059 247.213 71.0929 230.017 64.3258 209.219Z" fill="#8C4817"/>
</g>
<path opacity="0.1" d="M49.0234 217.395C49.3412 222.608 49.8565 227.45 50.5349 231.964C56.2887 231.387 62.3002 231.723 68.3374 233.093C95.7749 239.322 113.466 264.539 107.858 289.411C107.678 290.204 107.48 290.988 107.257 291.755C112.255 291.626 115.458 290.867 115.458 290.867C133.656 230.551 49.0234 217.395 49.0234 217.395Z" fill="#0046A0"/>
<path d="M121.891 8.55017H38.3746C33.3937 8.55017 29.3145 12.6425 29.3145 17.6394V76.4135C29.3145 81.4105 33.3937 85.5028 38.3746 85.5028H67.719L80.1284 100.674L92.5375 85.5028H121.882C126.863 85.5028 130.942 81.4105 130.942 76.4135V17.6308C130.942 12.6338 126.871 8.55017 121.891 8.55017Z" fill="#FE7411"/>
<path d="M80.1273 19.4658C64.8754 19.4658 52.4746 31.9151 52.4746 47.2074C52.4746 62.5083 64.884 74.9489 80.1273 74.9489C95.3788 74.9489 107.78 62.4997 107.78 47.2074C107.788 31.9151 95.3788 19.4658 80.1273 19.4658ZM80.1273 24.6954C85.3744 24.6954 90.2089 26.5218 94.0305 29.5544L62.5395 61.1643C59.508 57.3218 57.696 52.48 57.696 47.216C57.6874 34.8012 67.7523 24.6954 80.1273 24.6954ZM80.1273 69.728C74.8801 69.728 70.0452 67.9015 66.2237 64.8689L97.7232 33.2677C100.755 37.1101 102.575 41.952 102.575 47.216C102.575 59.6221 92.5018 69.728 80.1273 69.728Z" fill="white"/>
<path d="M214.175 118.129L112.289 146.008V292.031L214.175 264.151V118.129Z" fill="#424284"/>
<path d="M214.176 118.129L316.07 146.008V292.031L214.176 264.151V118.129Z" fill="#2E2E59"/>
<path d="M214.175 319.919L112.289 292.039V146.017L214.175 173.896V319.919Z" fill="#9283FF"/>
<path d="M214.176 319.919L316.07 292.039V146.017L214.176 173.896V319.919Z" fill="#6A65C9"/>
<path d="M181.756 207.746L79.8711 179.867L112.29 146.017L214.175 173.896L181.756 207.746Z" fill="#6C67D6"/>
<path d="M240.643 212.39L342.537 184.519L316.07 146.017L214.176 173.896L240.643 212.39Z" fill="#4F4F99"/>
<path d="M330.462 222.361L275.649 222L275 321.44L359.534 322L360 251.16L330.462 222.361Z" fill="#C8C7FF"/>
<path d="M330.193 222L360 251L330 250.807L330.193 222Z" fill="#ABABED"/>
<path d="M336 259.476L330.755 254.169L318.035 266.723L305.475 254L300.169 259.238L312.721 271.962L300 284.524L305.245 289.831L317.965 277.277L330.518 290L335.831 284.762L323.272 272.031L336 259.476Z" fill="#F1F1F5"/>
<path d="M83.3771 125.026L43.9194 112.904L22.1742 184.383L83.0326 203.075L98.5248 152.151L83.3771 125.026Z" fill="#C8C7FF"/>
<path d="M83.3781 125.027L98.5259 152.151L77.1255 145.582L83.3781 125.027Z" fill="#ABABED"/>
<path d="M79.1 152.815L76.4659 147.861L64.6435 154.165L58.3446 142.292L53.3989 144.922L59.6977 156.795L47.8754 163.099L50.5012 168.054L62.3321 161.749L68.6309 173.622L73.5682 170.993L67.2693 159.12L79.1 152.815Z" fill="#F1F1F5"/>
<path d="M292.325 1.14087L253.963 13.659L276.514 83.1765L335.676 63.8609L319.617 14.3396L292.325 1.14087Z" fill="#C8C7FF"/>
<path d="M292.324 1.14087L319.616 14.3396L298.808 21.1372L292.324 1.14087Z" fill="#ABABED"/>
<path d="M304.433 25.8153L299.555 23.3254L293.612 35.0424L281.933 29.0805L279.451 33.9654L291.131 39.9273L285.188 51.6442L290.066 54.1341L296.008 42.4171L307.688 48.379L310.17 43.4941L298.49 37.5322L304.433 25.8153Z" fill="#F1F1F5"/>
<path d="M329.303 55.702C330.29 51.7217 335.975 51.7217 336.954 55.702L338.414 61.5777C338.766 62.9993 339.874 64.102 341.3 64.4553L347.2 65.9026C351.193 66.8848 351.193 72.5537 347.2 73.5359L341.3 74.9833C339.874 75.3365 338.766 76.4393 338.414 77.8608L336.954 83.7365C335.967 87.7166 330.282 87.7166 329.303 83.7365L327.843 77.8608C327.491 76.4479 326.383 75.3365 324.957 74.9833L319.057 73.5359C315.064 72.5537 315.064 66.8848 319.057 65.9026L324.957 64.4553C326.383 64.102 327.491 62.9993 327.843 61.5777L329.303 55.702Z" fill="#9283FF"/>
<path d="M19.7907 91.4816C20.4347 88.8712 24.1533 88.8712 24.8059 91.4816L25.7592 95.3327C25.991 96.2632 26.7124 96.9869 27.6485 97.2109L31.513 98.1586C34.1323 98.8047 34.1323 102.509 31.513 103.155L27.6485 104.103C26.721 104.336 25.991 105.059 25.7592 105.981L24.8059 109.832C24.1618 112.443 20.4433 112.443 19.7907 109.832L18.8374 105.981C18.6055 105.051 17.8842 104.327 16.9481 104.103L13.0836 103.155C10.4643 102.509 10.4643 98.8047 13.0836 98.1586L16.9481 97.2109C17.8756 96.9783 18.6055 96.2546 18.8374 95.3327L19.7907 91.4816Z" fill="#C8C7FF"/>
<path d="M23.818 225.408C24.4621 222.797 28.1806 222.797 28.8333 225.408L29.7865 229.259C30.0184 230.189 30.7398 230.913 31.6758 231.137L35.5403 232.085C38.1596 232.731 38.1596 236.435 35.5403 237.082L31.6758 238.029C30.7483 238.262 30.0184 238.986 29.7865 239.907L28.8333 243.759C28.1892 246.369 24.4707 246.369 23.818 243.759L22.8648 239.907C22.6329 238.977 21.9115 238.253 20.9754 238.029L17.1109 237.082C14.4917 236.435 14.4917 232.731 17.1109 232.085L20.9754 231.137C21.9029 230.904 22.6329 230.181 22.8648 229.259L23.818 225.408Z" fill="#C8C7FF"/>
<path d="M378.27 210.391C376.887 208.091 379.515 205.446 381.817 206.833L385.209 208.883C386.025 209.375 387.047 209.375 387.871 208.875L391.272 206.807C393.573 205.403 396.193 208.031 394.793 210.339L392.732 213.751C392.234 214.57 392.234 215.603 392.723 216.422L394.767 219.825C396.15 222.125 393.522 224.77 391.22 223.383L387.828 221.333C387.012 220.842 385.99 220.842 385.166 221.341L381.765 223.409C379.464 224.813 376.844 222.186 378.244 219.877L380.305 216.465C380.803 215.647 380.803 214.613 380.314 213.794L378.27 210.391Z" fill="#9283FF"/>
<path d="M266.246 115.335L258.045 125.379L347.773 199.115L355.974 189.071L266.246 115.335Z" fill="#FE7411"/>
<path d="M268.558 109.838L253.129 128.733L279.384 150.309L294.812 131.414L268.558 109.838Z" fill="#8678FA"/>
<g opacity="0.2">
<path d="M262.155 120.378C242.926 143.923 208.197 147.387 184.727 128.097C161.257 108.807 157.804 73.9581 177.032 50.4209C196.26 26.875 230.989 23.4117 254.46 42.7015C277.93 61.9913 281.374 96.8317 262.155 120.378Z" fill="#F5F9FF"/>
</g>
<path d="M267.865 125.073C246.061 151.781 206.66 155.701 180.038 133.826C153.416 111.952 149.508 72.4246 171.312 45.7169C193.117 19.0092 232.518 15.0892 259.14 36.9637C285.762 58.8467 289.669 98.3739 267.865 125.073ZM181.326 53.9532C164.039 75.1212 167.147 106.446 188.239 123.789C209.331 141.132 240.564 138.022 257.852 116.854C275.139 95.6859 272.03 64.3606 250.938 47.0178C229.838 29.675 198.613 32.7852 181.326 53.9532Z" fill="#FE7411"/>
<g opacity="0.7">
<path opacity="0.3" d="M181.327 53.9533C164.039 75.1213 167.148 106.447 188.24 123.789C209.331 141.132 240.565 138.022 257.852 116.854C275.14 95.6859 272.031 64.3607 250.939 47.0179C229.839 29.6751 198.614 32.7853 181.327 53.9533Z" fill="url(#paint0_linear_212_11745)"/>
</g>
<path d="M246.955 66.0321L238.899 57.9423L219.594 77.3096L200.28 57.9423L192.225 66.0321L211.53 85.3995L192.225 104.767L200.28 112.848L219.594 93.4804L238.899 112.848L246.955 104.767L227.649 85.3995L246.955 66.0321Z" fill="#FF9142"/>
</g>
<defs>
<linearGradient id="paint0_linear_212_11745" x1="256.346" y1="117.6" x2="181.42" y2="51.0696" gradientUnits="userSpaceOnUse">
<stop stop-color="#FFBB8B"/>
<stop offset="1" stop-color="#FE7411"/>
</linearGradient>
<clipPath id="clip0_212_11745">
<rect width="427" height="336" fill="white"/>
</clipPath>
</defs>
</svg>
