<svg width="21" height="20" viewBox="0 0 21 20" fill="none" xmlns="http://www.w3.org/2000/svg">
<path d="M17.0625 4.58329L16.52 12.9375C16.3817 15.0716 16.3126 16.1391 15.75 16.9066C15.4723 17.2859 15.1147 17.606 14.7 17.8466C13.8626 18.3333 12.74 18.3333 10.4948 18.3333C8.246 18.3333 7.12162 18.3333 6.2825 17.8458C5.86765 17.6047 5.51006 17.284 5.2325 16.9041C4.67075 16.1358 4.6025 15.0666 4.46775 12.9291L3.9375 4.58329M2.625 4.58329H18.375M14.0481 4.58329L13.4514 3.40996C13.0541 2.62996 12.8564 2.24079 12.5143 1.99746C12.4382 1.94356 12.3578 1.89562 12.2736 1.85413C11.8948 1.66663 11.4398 1.66663 10.5298 1.66663C9.59788 1.66663 9.1315 1.66663 8.74562 1.86163C8.66033 1.90514 8.57896 1.95531 8.50238 2.01163C8.15588 2.26413 7.9625 2.66829 7.57575 3.47579L7.04638 4.58329" stroke="#808080" stroke-width="1.5" stroke-linecap="round" stroke-linejoin="round"/>
</svg>
