<svg width="41" height="41" viewBox="0 0 41 41" fill="none" xmlns="http://www.w3.org/2000/svg">
<rect x="1" y="1" width="39" height="39" rx="10" stroke="white"/>
<path d="M20.5 12.512C23.0843 12.512 23.4367 12.512 24.494 12.512C25.4337 12.512 25.9036 12.747 26.256 12.8645C26.7259 13.0994 27.0783 13.2169 27.4307 13.5693C27.7831 13.9217 28.0181 14.2741 28.1355 14.744C28.253 15.0964 28.3705 15.5663 28.488 16.506C28.488 17.5633 28.488 17.7982 28.488 20.5C28.488 23.2018 28.488 23.4367 28.488 24.494C28.488 25.4337 28.253 25.9036 28.1355 26.256C27.9006 26.7259 27.7831 27.0783 27.4307 27.4307C27.0783 27.7831 26.7259 28.0181 26.256 28.1355C25.9036 28.253 25.4337 28.3705 24.494 28.488C23.4367 28.488 23.2018 28.488 20.5 28.488C17.7982 28.488 17.5633 28.488 16.506 28.488C15.5663 28.488 15.0964 28.253 14.744 28.1355C14.2741 27.9006 13.9217 27.7831 13.5693 27.4307C13.2169 27.0783 12.9819 26.7259 12.8645 26.256C12.747 25.9036 12.6295 25.4337 12.512 24.494C12.512 23.4367 12.512 23.2018 12.512 20.5C12.512 17.7982 12.512 17.5633 12.512 16.506C12.512 15.5663 12.747 15.0964 12.8645 14.744C13.0994 14.2741 13.2169 13.9217 13.5693 13.5693C13.9217 13.2169 14.2741 12.9819 14.744 12.8645C15.0964 12.747 15.5663 12.6295 16.506 12.512C17.5633 12.512 17.9157 12.512 20.5 12.512ZM20.5 10.75C17.7982 10.75 17.5633 10.75 16.506 10.75C15.4488 10.75 14.744 10.9849 14.1566 11.2199C13.5693 11.4548 12.9819 11.8072 12.3946 12.3946C11.8072 12.9819 11.5723 13.4518 11.2199 14.1566C10.9849 14.744 10.8675 15.4488 10.75 16.506C10.75 17.5633 10.75 17.9157 10.75 20.5C10.75 23.2018 10.75 23.4367 10.75 24.494C10.75 25.5512 10.9849 26.256 11.2199 26.8434C11.4548 27.4307 11.8072 28.0181 12.3946 28.6054C12.9819 29.1928 13.4518 29.4277 14.1566 29.7801C14.744 30.0151 15.4488 30.1325 16.506 30.25C17.5633 30.25 17.9157 30.25 20.5 30.25C23.0843 30.25 23.4367 30.25 24.494 30.25C25.5512 30.25 26.256 30.0151 26.8434 29.7801C27.4307 29.5452 28.0181 29.1928 28.6054 28.6054C29.1928 28.0181 29.4277 27.5482 29.7801 26.8434C30.0151 26.256 30.1325 25.5512 30.25 24.494C30.25 23.4367 30.25 23.0843 30.25 20.5C30.25 17.9157 30.25 17.5633 30.25 16.506C30.25 15.4488 30.0151 14.744 29.7801 14.1566C29.5452 13.5693 29.1928 12.9819 28.6054 12.3946C28.0181 11.8072 27.5482 11.5723 26.8434 11.2199C26.256 10.9849 25.5512 10.8675 24.494 10.75C23.4367 10.75 23.2018 10.75 20.5 10.75Z" fill="white"/>
<path d="M20.5 15.4488C17.6807 15.4488 15.4488 17.6807 15.4488 20.5C15.4488 23.3193 17.6807 25.5512 20.5 25.5512C23.3193 25.5512 25.5512 23.3193 25.5512 20.5C25.5512 17.6807 23.3193 15.4488 20.5 15.4488ZM20.5 23.7892C18.738 23.7892 17.2108 22.3795 17.2108 20.5C17.2108 18.738 18.6205 17.2108 20.5 17.2108C22.262 17.2108 23.7892 18.6205 23.7892 20.5C23.7892 22.262 22.262 23.7892 20.5 23.7892Z" fill="white"/>
<path d="M25.6687 16.506C26.3174 16.506 26.8434 15.9801 26.8434 15.3313C26.8434 14.6826 26.3174 14.1566 25.6687 14.1566C25.0199 14.1566 24.494 14.6826 24.494 15.3313C24.494 15.9801 25.0199 16.506 25.6687 16.506Z" fill="white"/>
</svg>
